# xmcd
#
# Track frame offsets:
#	150
#	10847
#	21532
#	30710
#	40022
#	58075
#	74460
#	86450
#	91485
#	106877
#	129355
#	148365
#	157090
#	170840
#	185610
#	200450
#	213165
#	230312
#	239167
#	257352
#	267140
#	281805
#	293637
#	298102
#	305345
#
# Disc length: 4194 seconds
#
# Revision: 0
# Processed by: cddbd v1.4PL0 Copyright (c) Steve Scherf et al.
# Submitted via: EasyCDDAExtractor 4.5.0.2
#
DISCID=7a106019
DTITLE=Various Artist - TENNESSEE BLUES Vol 1
DYEAR=1900
DGENRE=Blues
TTITLE0=little laura dukes /stack o' lee blues
TTITLE1=little laura dukes - jimmy's blues
TTITLE2=little laura dukes - eh lordy, lord!
TTITLE3=little laura dukes - bricks in my pillow
TTITLE4=john " piano red " williams - baby, please come back to me
TTITLE5=john " piano red " williams - forgive me baby
TTITLE6=john " piano red " williams - goin' to st louis
TTITLE7=john " piano red " williams - blues in the mornin'
TTITLE8=bukka white - aberdeen blues
TTITLE9=bukka white - please
TTITLE10=bukka white - i ain't got a little bed
TTITLE11=bukka white - all night long
TTITLE12=bukka white - cross the river
TTITLE13=dewey corley - stop and listen
TTITLE14=dewey corley - it was a dream
TTITLE15=dewey corley - fishing in the dark
TTITLE16=dewey corley - blues jumped to rabbit
TTITLE17=dewey corley - dewey's blues
TTITLE18=dewey corley - big leg woman
TTITLE19=dewey corley - mose vinson - memphis boogie
TTITLE20=dewey corley - mose vinson - so long blues
TTITLE21=dewey corley - mose vinson - you may be old
TTITLE22=dewey corley - mose vinson - i can't
TTITLE23=dewey corley - mose vinson - i had a dream last night
TTITLE24=dewey corley - mose vinson - rains all night
EXTD=
EXTT0=
EXTT1=
EXTT2=
EXTT3=
EXTT4=
EXTT5=
EXTT6=
EXTT7=
EXTT8=
EXTT9=
EXTT10=
EXTT11=
EXTT12=
EXTT13=
EXTT14=
EXTT15=
EXTT16=
EXTT17=
EXTT18=
EXTT19=
EXTT20=
EXTT21=
EXTT22=
EXTT23=
EXTT24=
PLAYORDER=
